<svg width="100%" height="100%" viewBox="0 0 576 512" version="1.1" xmlns="http://www.w3.org/2000/svg" xmlns:xlink="http://www.w3.org/1999/xlink" xml:space="preserve" xmlns:serif="http://www.serif.com/" style="fill-rule:evenodd;clip-rule:evenodd;stroke-linejoin:round;stroke-miterlimit:2;"><path d="M510.62,92.63l-95.32,76.28c0.406,2.343 0.64,4.713 0.7,7.09c0,26.332 -21.668,48 -48,48c-26.332,0 -48,-21.668 -48,-48c0.058,-2.381 0.295,-4.755 0.71,-7.1l-95.33,-76.27c-9.422,3.862 -19.879,4.423 -29.66,1.59l-101.5,101.5c1.045,3.976 1.574,8.069 1.574,12.18c0,26.277 -21.622,47.9 -47.9,47.9c-26.277,0 -47.9,-21.623 -47.9,-47.9c0,-26.277 21.623,-47.9 47.9,-47.9c0.036,0 0.071,0 0.106,0c4.153,0.058 8.281,0.656 12.28,1.78l101.5,-101.5c-1.124,-3.999 -1.722,-8.127 -1.78,-12.28c0,-26.332 21.668,-48 48,-48c26.332,0 48,21.668 48,48c-0.058,2.381 -0.295,4.755 -0.71,7.1l95.32,76.26c11.147,-4.492 23.613,-4.492 34.76,0l95.34,-76.27c-0.41,-2.343 -0.647,-4.712 -0.71,-7.09c-0.001,-0.12 -0.001,-0.239 -0.001,-0.359c0,-26.53 21.83,-48.36 48.36,-48.36c26.529,0 48.36,21.83 48.36,48.36c0,26.529 -21.831,48.36 -48.36,48.36c-6.072,0 -12.09,-1.144 -17.739,-3.371Z" style="fill:#fd7d25;fill-rule:nonzero;"/><path d="M400,320l-64,0c-8.777,0 -16,7.223 -16,16l0,160c0,8.777 7.223,16 16,16l64,0c8.777,0 16,-7.223 16,-16l0,-160c0,-8.777 -7.223,-16 -16,-16Zm160,-128l-64,0c-8.777,0 -16,7.223 -16,16l0,288c0,8.777 7.223,16 16,16l64,0c8.777,0 16,-7.223 16,-16l0,-288c0,-8.777 -7.223,-16 -16,-16Zm-320,0l-64,0c-8.777,0 -16,7.223 -16,16l0,288c0,8.777 7.223,16 16,16l64,0c8.777,0 16,-7.223 16,-16l0,-288c0,-8.777 -7.223,-16 -16,-16Zm-160,160l-64,0c-8.777,0 -16,7.223 -16,16l0,128c0,8.777 7.223,16 16,16l64,0c8.777,0 16,-7.223 16,-16l0,-128c0,-8.777 -7.223,-16 -16,-16Z" style="fill:#fff;fill-rule:nonzero;"/></svg>