<svg width="100%" height="100%" viewBox="0 0 512 512" version="1.1" xmlns="http://www.w3.org/2000/svg" xmlns:xlink="http://www.w3.org/1999/xlink" xml:space="preserve" xmlns:serif="http://www.serif.com/" style="fill-rule:evenodd;clip-rule:evenodd;stroke-linejoin:round;stroke-miterlimit:2;"><path d="M466.5,83.68l-192,-80c-5.906,-2.233 -12.14,-3.476 -18.45,-3.68c-6.313,0.199 -12.551,1.439 -18.46,3.67l-192,80c-17.891,7.41 -29.609,24.965 -29.59,44.33c0,198.5 114.5,335.72 221.5,380.32c11.809,4.908 25.101,4.908 36.91,0c85.68,-35.71 221.59,-159.02 221.59,-380.32c0.011,-19.334 -11.66,-36.868 -29.5,-44.32Zm-82.5,172.32l-12.12,0c-28.51,0 -42.79,34.47 -22.63,54.63l8.58,8.57c3,3 4.687,7.073 4.687,11.315c0,8.778 -7.224,16.002 -16.002,16.002c-4.242,0 -8.315,-1.687 -11.315,-4.687l-8.57,-8.58c-20.16,-20.16 -54.63,-5.88 -54.63,22.63l0,12.12c0,8.777 -7.223,16 -16,16c-8.777,0 -16,-7.223 -16,-16l0,-12.12c0,-28.51 -34.47,-42.79 -54.63,-22.63l-8.57,8.58c-3,3 -7.073,4.687 -11.315,4.687c-8.778,0 -16.002,-7.224 -16.002,-16.002c0,-4.242 1.687,-8.315 4.687,-11.315l8.58,-8.57c20.16,-20.16 5.88,-54.63 -22.63,-54.63l-12.12,0c-8.777,0 -16,-7.223 -16,-16c0,-8.777 7.223,-16 16,-16l12.12,0c28.51,0 42.79,-34.47 22.63,-54.63l-8.58,-8.57c-3,-3 -4.687,-7.073 -4.687,-11.315c0,-8.778 7.224,-16.002 16.002,-16.002c4.242,0 8.315,1.687 11.315,4.687l8.57,8.58c20.16,20.16 54.63,5.88 54.63,-22.63l0,-12.12c0,-8.777 7.223,-16 16,-16c8.777,0 16,7.223 16,16l0,12.12c0,28.51 34.47,42.79 54.63,22.63l8.57,-8.58c3,-3 7.073,-4.687 11.315,-4.687c8.778,0 16.002,7.224 16.002,16.002c0,4.242 -1.687,8.315 -4.687,11.315l-8.58,8.57c-20.16,20.16 -5.88,54.63 22.63,54.63l12.12,0c8.777,0 16,7.223 16,16c0,8.777 -7.223,16 -16,16Z" style="fill:#fd7d25;fill-rule:nonzero;"/><path d="M384,224l-12.12,0c-28.51,0 -42.79,-34.47 -22.63,-54.63l8.58,-8.57c3,-3 4.687,-7.073 4.687,-11.315c0,-8.778 -7.224,-16.002 -16.002,-16.002c-4.242,0 -8.315,1.687 -11.315,4.687l-8.57,8.58c-20.16,20.16 -54.63,5.88 -54.63,-22.63l0,-12.12c0,-8.777 -7.223,-16 -16,-16c-8.777,0 -16,7.223 -16,16l0,12.12c0,28.51 -34.47,42.79 -54.63,22.63l-8.57,-8.58c-3,-3 -7.073,-4.687 -11.315,-4.687c-8.778,0 -16.002,7.224 -16.002,16.002c0,4.242 1.687,8.315 4.687,11.315l8.58,8.57c20.16,20.16 5.88,54.63 -22.63,54.63l-12.12,0c-8.777,0 -16,7.223 -16,16c0,8.777 7.223,16 16,16l12.12,0c28.51,0 42.79,34.47 22.63,54.63l-8.58,8.57c-3,3 -4.687,7.073 -4.687,11.315c0,8.778 7.224,16.002 16.002,16.002c4.242,0 8.315,-1.687 11.315,-4.687l8.57,-8.58c20.16,-20.16 54.63,-5.88 54.63,22.63l0,12.12c0,8.777 7.223,16 16,16c8.777,0 16,-7.223 16,-16l0,-12.12c0,-28.51 34.47,-42.79 54.63,-22.63l8.57,8.58c3,3 7.073,4.687 11.315,4.687c8.778,0 16.002,-7.224 16.002,-16.002c0,-4.242 -1.687,-8.315 -4.687,-11.315l-8.58,-8.57c-20.16,-20.16 -5.88,-54.63 22.63,-54.63l12.12,0c8.777,0 16,-7.223 16,-16c0,-8.777 -7.223,-16 -16,-16Zm-160,5c-8.777,0 -21,-12.223 -21,-21c0,-8.777 12.223,-21 21,-21c8.777,0 21,12.223 21,21c0,8.777 -12.223,21 -21,21Zm64,64c-8.777,0 -21,-12.223 -21,-21c0,-8.777 12.223,-21 21,-21c8.777,0 21,12.223 21,21c0,8.777 -12.223,21 -21,21Z" style="fill:#fff;fill-rule:nonzero;"/></svg>