<svg width="100%" height="100%" viewBox="0 0 512 512" version="1.1" xmlns="http://www.w3.org/2000/svg" xmlns:xlink="http://www.w3.org/1999/xlink" xml:space="preserve" xmlns:serif="http://www.serif.com/" style="fill-rule:evenodd;clip-rule:evenodd;stroke-linejoin:round;stroke-miterlimit:2;"><path d="M512,224l0,240c0,26.332 -21.668,48 -48,48l-416,0c-26.332,0 -48,-21.668 -48,-48l0,-240l512,0Z" style="fill:#fd7d25;fill-rule:nonzero;"/><path d="M53.1,32.8l-50.6,151.8c-0.8,2.4 -0.8,4.9 -1.2,7.4l238.7,0l0,-192l-141.4,0c-20.601,-0.028 -39.015,13.246 -45.5,32.8Zm456.4,151.8l-50.6,-151.8c-6.485,-19.554 -24.899,-32.828 -45.5,-32.8l-141.4,0l0,192l238.7,0c-0.4,-2.5 -0.4,-5 -1.2,-7.4Z" style="fill:#fff;fill-rule:nonzero;"/></svg>