<svg width="100%" height="100%" viewBox="0 0 576 512" version="1.1" xmlns="http://www.w3.org/2000/svg" xmlns:xlink="http://www.w3.org/1999/xlink" xml:space="preserve" xmlns:serif="http://www.serif.com/" style="fill-rule:evenodd;clip-rule:evenodd;stroke-linejoin:round;stroke-miterlimit:2;"><path d="M288,32c-159.06,0 -288,128.94 -288,288c-0.068,50.875 13.416,100.861 39.06,144.8c5.61,9.62 16.3,15.2 27.44,15.2l443,0c11.14,0 21.83,-5.58 27.44,-15.2c25.644,-43.939 39.128,-93.925 39.06,-144.8c0,-159.06 -128.94,-288 -288,-288Zm0,64c14.71,0 26.58,10.13 30.32,23.65c-1.11,2.26 -2.64,4.23 -3.45,6.67l-9.22,27.68c-5.13,3.49 -11,6 -17.64,6c-17.555,0 -32,-14.445 -32,-32c0,-17.555 14.445,-32 32,-32l-0.01,0Zm-192,288c-17.555,0 -32,-14.445 -32,-32c0,-17.555 14.445,-32 32,-32c17.555,0 32,14.445 32,32c0,17.555 -14.445,32 -32,32Zm48,-160c-17.555,0 -32,-14.445 -32,-32c0,-17.555 14.445,-32 32,-32c17.555,0 32,14.445 32,32c0,17.555 -14.445,32 -32,32Zm246.77,-72.41l-61.33,184c23.612,19.707 29.447,54.004 13.68,80.41l-110.24,0c-5.813,-9.787 -8.881,-20.962 -8.881,-32.345c0,-33.443 26.487,-61.419 59.881,-63.245l61.34,-184c3.337,-9.644 12.476,-16.153 22.681,-16.153c13.166,0 24,10.834 24,24c0,2.493 -0.388,4.97 -1.151,7.343l0.02,-0.01Zm14.66,57.2l15.57,-46.55c3.503,-1.398 7.229,-2.157 11,-2.24c17.555,0 32,14.445 32,32c0,17.555 -14.445,32 -32,32c-11.38,0 -20.89,-6.27 -26.57,-15.21Zm74.57,175.21c-17.555,0 -32,-14.445 -32,-32c0,-17.555 14.445,-32 32,-32c17.555,0 32,14.445 32,32c0,17.555 -14.445,32 -32,32Z" style="fill:#fff;fill-rule:nonzero;"/><path d="M283.9,320.41l61.34,-184c3.337,-9.644 12.476,-16.153 22.681,-16.153c13.166,0 24,10.834 24,24c0,2.493 -0.388,4.97 -1.151,7.343l-61.33,184c23.607,19.705 29.442,53.996 13.68,80.4l-110.24,0c-5.813,-9.787 -8.881,-20.962 -8.881,-32.345c0,-33.443 26.487,-61.419 59.881,-63.245l0.02,0Z" style="fill:#fd7d25;fill-rule:nonzero;"/></svg>