<svg width="100%" height="100%" viewBox="0 0 512 512" version="1.1" xmlns="http://www.w3.org/2000/svg" xmlns:xlink="http://www.w3.org/1999/xlink" xml:space="preserve" xmlns:serif="http://www.serif.com/" style="fill-rule:evenodd;clip-rule:evenodd;stroke-linejoin:round;stroke-miterlimit:2;"><path d="M464,107.08l-192,0l-64,-64l-160,0c-26.332,0 -48,21.668 -48,48l0,328c0,26.332 21.668,48 48,48l416,0c26.332,0 48,-21.668 48,-48l0,-264c0,-26.332 -21.668,-48 -48,-48Z" style="fill:#fd7d25;fill-rule:nonzero;"/><path d="M424.732,318.722l-54.82,0l0,40.365c0,7.381 -6.074,13.455 -13.455,13.455l-26.91,0c-7.382,0 -13.455,-6.074 -13.455,-13.455l0,-40.365l-54.804,0c-7.376,-0.008 -13.441,-6.079 -13.441,-13.455c0,-3.578 1.428,-7.012 3.963,-9.536l81.1,-80.511c5.552,-5.501 14.631,-5.501 20.183,0l81.083,80.477c2.557,2.527 3.997,5.976 3.997,9.57c0,7.376 -6.065,13.447 -13.441,13.455Z" style="fill:#fff;fill-rule:nonzero;"/><path d="M188.92,236.407l-73.626,0l0,39.619l67.793,0c4.989,0 8.712,1.119 11.17,3.356c2.458,2.238 3.687,5.191 3.687,8.86c0,3.668 -1.21,6.658 -3.632,8.969c-2.421,2.311 -6.163,3.467 -11.225,3.467l-67.793,0l0,45.892l76.157,0c5.136,0 9.006,1.192 11.611,3.576c2.604,2.385 3.906,5.558 3.906,9.52c0,3.815 -1.302,6.915 -3.906,9.299c-2.605,2.385 -6.475,3.577 -11.611,3.577l-88.813,0c-7.117,0 -12.234,-1.577 -15.352,-4.732c-3.118,-3.155 -4.678,-8.254 -4.678,-15.297l0,-121.279c0,-4.696 0.697,-8.529 2.092,-11.5c1.394,-2.972 3.576,-5.136 6.548,-6.494c2.971,-1.357 6.768,-2.036 11.39,-2.036l86.282,0c5.209,0 9.079,1.156 11.61,3.467c2.532,2.311 3.797,5.338 3.797,9.079c0,3.816 -1.265,6.879 -3.797,9.19c-2.531,2.311 -6.401,3.467 -11.61,3.467Z" style="fill:#fff;fill-rule:nonzero;"/></svg>