<svg width="100%" height="100%" viewBox="0 0 512 512" version="1.1" xmlns="http://www.w3.org/2000/svg" xmlns:xlink="http://www.w3.org/1999/xlink" xml:space="preserve" xmlns:serif="http://www.serif.com/" style="fill-rule:evenodd;clip-rule:evenodd;stroke-linejoin:round;stroke-miterlimit:2;"><path d="M504.99,105.01l-97.9,-98c-7.71,-7.71 -16,-7 -23.1,-7l0,128l128,0c0,-7.53 0.64,-15.35 -7,-23Zm-153,31l0,-136l-199.99,0c-13.3,0 -24,10.7 -24,24l0,108.99c18.3,-5 19.58,-5 26.45,-5c16.23,0 32.1,6.67 43.53,18.3c8.72,9.59 4.41,6.98 18.28,10.76c21.07,5.75 37.64,22.53 43.23,43.8c3.11,13.2 0.6,8.66 10.75,18.99c15.25,15.51 21.26,38.26 15.7,59.36c-3.75,13.23 -3.71,8.01 0,22.12c5.57,21.11 -0.45,43.85 -15.69,59.37c-9.64,9.36 -7.04,4.88 -10.75,18.99c-4.89,18.59 -18.16,33.75 -35.5,41.12l0,91.19l263.99,0c13.3,0 24,-10.7 24,-24l0,-327.99l-136,0c-13.2,0 -24,-10.8 -24,-24Z" style="fill:#fff;fill-rule:nonzero;"/><path d="M247.42,338.28c7.4,-7.53 10.29,-18.5 7.58,-28.79c-5.43,-20.65 -5.44,-17.74 0,-38.42c2.71,-10.28 -0.18,-21.26 -7.58,-28.79c-14.86,-15.12 -13.43,-12.61 -18.87,-33.27c-2.71,-10.28 -10.6,-18.32 -20.71,-21.07c-20.28,-5.53 -17.84,-4.1 -32.69,-19.21c-7.4,-7.53 -18.18,-10.47 -28.28,-7.71c-20.32,5.54 -17.46,5.53 -37.75,0c-10.1,-2.76 -20.88,0.19 -28.28,7.71c-14.91,15.18 -12.5,13.7 -32.69,19.21c-10.11,2.76 -18,10.79 -20.71,21.07c-5.46,20.74 -4,18.13 -18.87,33.27c-7.4,7.53 -10.29,18.5 -7.58,28.79c5.45,20.71 5.42,17.79 0,38.41c-2.71,10.28 0.18,21.26 7.58,28.79c14.85,15.11 13.43,12.61 18.87,33.27c2.71,10.28 10.6,18.32 20.71,21.07c14.31,3.9 11.52,2.97 15.84,5l0,114.39l64,-32l64,32l0,-114.38c4.31,-2.02 1.52,-1.1 15.84,-5c10.11,-2.76 18,-10.79 20.71,-21.07c5.47,-20.74 4.01,-18.13 18.88,-33.27Zm-119.42,13.73c-35.34,0 -64,-28.65 -64,-64c0,-35.35 28.66,-64 64,-64c35.34,0 64,28.65 64,64c0,35.35 -28.66,64 -64,64Z" style="fill:#fd7d25;fill-rule:nonzero;"/></svg>