<svg width="100%" height="100%" viewBox="0 0 512 512" version="1.1" xmlns="http://www.w3.org/2000/svg" xmlns:xlink="http://www.w3.org/1999/xlink" xml:space="preserve" xmlns:serif="http://www.serif.com/" style="fill-rule:evenodd;clip-rule:evenodd;stroke-linejoin:round;stroke-miterlimit:2;"><path d="M147.78,384l-32,64l280.44,0l-32,-64l-216.44,0Zm316.22,-320l-416,0c-26.332,0 -48,21.668 -48,48l0,288c0,26.332 21.668,48 48,48l32,0l48,-96l256,0l48,96l32,0c26.332,0 48,-21.668 48,-48l0,-288c0,-26.332 -21.668,-48 -48,-48Zm-96,224l-224,0c-35.109,0 -64,-28.891 -64,-64c0,-35.109 28.891,-64 64,-64l224,0c35.109,0 64,28.891 64,64c0,35.109 -28.891,64 -64,64Z" style="fill:#fff;fill-rule:nonzero;"/><path d="M368,160l-224,0c-35.109,0 -64,28.891 -64,64c0,35.109 28.891,64 64,64l224,0c35.109,0 64,-28.891 64,-64c0,-35.109 -28.891,-64 -64,-64Zm-224,80c-8.777,0 -16,-7.223 -16,-16c0,-8.777 7.223,-16 16,-16c8.777,0 16,7.223 16,16c0,8.777 -7.223,16 -16,16Zm61.73,0c3.027,-10.451 3.027,-21.549 0,-32l100.54,0c-3.027,10.451 -3.027,21.549 0,32l-100.54,0Zm162.27,0c-8.777,0 -16,-7.223 -16,-16c0,-8.777 7.223,-16 16,-16c8.777,0 16,7.223 16,16c0,8.777 -7.223,16 -16,16Z" style="fill:#fd7d25;fill-rule:nonzero;"/></svg>