<svg width="100%" height="100%" viewBox="0 0 512 512" version="1.1" xmlns="http://www.w3.org/2000/svg" xmlns:xlink="http://www.w3.org/1999/xlink" xml:space="preserve" xmlns:serif="http://www.serif.com/" style="fill-rule:evenodd;clip-rule:evenodd;stroke-linejoin:round;stroke-miterlimit:2;"><path d="M272,107.08l192,0c26.332,0 48,21.668 48,48l0,264c0,26.332 -21.668,48 -48,48l-416,0c-26.332,0 -48,-21.668 -48,-48l0,-328c0,-26.332 21.668,-48 48,-48l160,0l64,64Zm152.732,211.642c7.377,-0.008 13.441,-6.079 13.441,-13.455c0,-3.594 -1.44,-7.043 -3.997,-9.57l-81.083,-80.477c-5.552,-5.501 -14.631,-5.501 -20.183,0l-81.1,80.511c-2.535,2.524 -3.963,5.958 -3.963,9.536c0,7.376 6.065,13.447 13.441,13.455l54.804,0l0,40.365c0,7.381 6.073,13.455 13.455,13.455l26.91,0c7.381,0 13.455,-6.074 13.455,-13.455l0,-40.365l54.82,0Z" style="fill:#fd7d25;fill-rule:nonzero;"/><path d="M424.732,318.722l-54.82,0l0,40.365c0,7.381 -6.074,13.455 -13.455,13.455l-26.91,0c-7.382,0 -13.455,-6.074 -13.455,-13.455l0,-40.365l-54.804,0c-7.376,-0.008 -13.441,-6.079 -13.441,-13.455c0,-3.578 1.428,-7.012 3.963,-9.536l81.1,-80.511c5.552,-5.501 14.631,-5.501 20.183,0l81.083,80.477c2.557,2.527 3.997,5.976 3.997,9.57c0,7.376 -6.065,13.447 -13.441,13.455Z" style="fill:#fff;fill-rule:nonzero;"/><path d="M205.208,324.119c0,9.758 -2.513,18.525 -7.539,26.303c-5.026,7.777 -12.381,13.866 -22.066,18.268c-9.684,4.402 -21.167,6.604 -34.446,6.604c-15.921,0 -29.054,-3.009 -39.399,-9.025c-7.337,-4.329 -13.298,-10.106 -17.884,-17.333c-4.585,-7.227 -6.878,-14.252 -6.878,-21.075c0,-3.962 1.375,-7.356 4.127,-10.18c2.751,-2.825 6.254,-4.237 10.51,-4.237c3.448,0 6.365,1.1 8.749,3.301c2.385,2.201 4.421,5.466 6.108,9.795c2.054,5.136 4.274,9.428 6.658,12.876c2.385,3.449 5.741,6.292 10.07,8.529c4.329,2.238 10.015,3.357 17.058,3.357c9.685,0 17.554,-2.256 23.607,-6.768c6.053,-4.512 9.079,-10.144 9.079,-16.893c0,-5.356 -1.632,-9.703 -4.897,-13.042c-3.265,-3.338 -7.484,-5.888 -12.656,-7.648c-5.173,-1.761 -12.088,-3.632 -20.745,-5.613c-11.593,-2.715 -21.296,-5.888 -29.109,-9.52c-7.814,-3.631 -14.014,-8.584 -18.599,-14.857c-4.586,-6.273 -6.879,-14.068 -6.879,-23.386c0,-8.878 2.421,-16.765 7.264,-23.662c4.842,-6.896 11.849,-12.197 21.02,-15.902c9.171,-3.705 19.956,-5.558 32.356,-5.558c9.904,0 18.47,1.229 25.697,3.687c7.227,2.458 13.225,5.723 17.994,9.795c4.769,4.072 8.254,8.345 10.455,12.821c2.201,4.475 3.301,8.841 3.301,13.096c0,3.889 -1.375,7.392 -4.127,10.51c-2.751,3.118 -6.181,4.677 -10.29,4.677c-3.742,0 -6.585,-0.935 -8.529,-2.806c-1.944,-1.871 -4.053,-4.934 -6.328,-9.189c-2.935,-6.09 -6.456,-10.841 -10.565,-14.252c-4.109,-3.412 -10.712,-5.118 -19.81,-5.118c-8.437,0 -15.242,1.853 -20.414,5.558c-5.173,3.705 -7.759,8.162 -7.759,13.371c0,3.229 0.88,6.017 2.641,8.364c1.761,2.348 4.182,4.366 7.264,6.053c3.081,1.688 6.199,3.008 9.354,3.962c3.155,0.954 8.364,2.348 15.628,4.182c9.097,2.128 17.333,4.476 24.707,7.044c7.373,2.568 13.646,5.686 18.819,9.354c5.172,3.669 9.207,8.309 12.106,13.922c2.898,5.613 4.347,12.491 4.347,20.635Z" style="fill:#fff;fill-rule:nonzero;"/></svg>