<svg width="100%" height="100%" viewBox="0 0 512 512" version="1.1" xmlns="http://www.w3.org/2000/svg" xmlns:xlink="http://www.w3.org/1999/xlink" xml:space="preserve" xmlns:serif="http://www.serif.com/" style="fill-rule:evenodd;clip-rule:evenodd;stroke-linejoin:round;stroke-miterlimit:2;"><path d="M432,120c13.166,0 24,-10.834 24,-24c0,-13.166 -10.834,-24 -24,-24c-13.166,0 -24,10.834 -24,24c0,13.166 10.834,24 24,24Zm0,272c-13.166,0 -24,10.834 -24,24c0,13.166 10.834,24 24,24c13.166,0 24,-10.834 24,-24c0,-13.166 -10.834,-24 -24,-24Zm48,-200l-448,0c-17.555,0 -32,14.445 -32,32l0,64c0,17.555 14.445,32 32,32l448,0c17.555,0 32,-14.445 32,-32l0,-64c0,-17.555 -14.445,-32 -32,-32Zm-112,88c-13.166,0 -24,-10.834 -24,-24c0,-13.166 10.834,-24 24,-24c13.166,0 24,10.834 24,24c0,13.166 -10.834,24 -24,24Zm64,0c-13.166,0 -24,-10.834 -24,-24c0,-13.166 10.834,-24 24,-24c13.166,0 24,10.834 24,24c0,13.166 -10.834,24 -24,24Z" style="fill:#fd7d25;fill-rule:nonzero;"/><path d="M456,256c0,-13.166 -10.834,-24 -24,-24c-13.166,0 -24,10.834 -24,24c0,13.166 10.834,24 24,24c13.166,0 24,-10.834 24,-24Zm24,-224l-448,0c-17.555,0 -32,14.445 -32,32l0,64c0,17.555 14.445,32 32,32l448,0c17.555,0 32,-14.445 32,-32l0,-64c0,-17.555 -14.445,-32 -32,-32Zm-112,88c-13.166,0 -24,-10.834 -24,-24c0,-13.166 10.834,-24 24,-24c13.166,0 24,10.834 24,24c0,13.166 -10.834,24 -24,24Zm64,0c-13.166,0 -24,-10.834 -24,-24c0,-13.166 10.834,-24 24,-24c13.166,0 24,10.834 24,24c0,13.166 -10.834,24 -24,24Zm48,232l-448,0c-17.555,0 -32,14.445 -32,32l0,64c0,17.555 14.445,32 32,32l448,0c17.555,0 32,-14.445 32,-32l0,-64c0,-17.555 -14.445,-32 -32,-32Zm-112,88c-13.166,0 -24,-10.834 -24,-24c0,-13.166 10.834,-24 24,-24c13.166,0 24,10.834 24,24c0,13.166 -10.834,24 -24,24Zm64,0c-13.166,0 -24,-10.834 -24,-24c0,-13.166 10.834,-24 24,-24c13.166,0 24,10.834 24,24c0,13.166 -10.834,24 -24,24Z" style="fill:#fff;fill-rule:nonzero;"/></svg>