<?xml version="1.0" encoding="UTF-8" standalone="no"?><!DOCTYPE svg PUBLIC "-//W3C//DTD SVG 1.1//EN" "http://www.w3.org/Graphics/SVG/1.1/DTD/svg11.dtd"><svg width="100%" height="100%" viewBox="0 0 640 512" version="1.1" xmlns="http://www.w3.org/2000/svg" xmlns:xlink="http://www.w3.org/1999/xlink" xml:space="preserve" xmlns:serif="http://www.serif.com/" style="fill-rule:evenodd;clip-rule:evenodd;stroke-linejoin:round;stroke-miterlimit:2;"><circle cx="592.5" cy="256" r="47.5" style="fill:#fd7d25;"/><path d="M445.22,280l-57.5,122.22c-4.32,9.14 -13.44,14.81 -23.94,13.67c-10.06,-0.92 -18.47,-8.06 -21,-17.83l-70.09,-268.64l-75.19,363.44c-2.25,10.85 -11.63,18.76 -22.72,19.12c-0.25,0.02 -0.53,0.02 -0.78,0.02c-10.759,0.003 -20.264,-7.237 -23.12,-17.61l-59.16,-214.38l-75.72,0c-8.84,0 -16,-7.16 -16,-16l0,-16c0,-8.84 7.16,-16 16,-16l93.98,0c10.8,0 20.28,7.21 23.15,17.62l37.53,136.03l75.84,-366.52c2.26,-10.92 11.76,-18.84 22.88,-19.12c0.21,-0.02 0.43,-0.02 0.62,-0.02c10.91,0 20.47,7.36 23.22,17.94l79.28,303.89l35.78,-76.04c3.96,-8.42 12.419,-13.79 21.72,-13.79l104.781,0c-3.08,7.391 -4.781,15.498 -4.781,24c0,8.502 1.701,16.609 4.781,24l-89.561,0Z" style="fill:#fff;fill-rule:nonzero;"/></svg>