<svg width="100%" height="100%" viewBox="0 0 640 512" version="1.1" xmlns="http://www.w3.org/2000/svg" xmlns:xlink="http://www.w3.org/1999/xlink" xml:space="preserve" xmlns:serif="http://www.serif.com/" style="fill-rule:evenodd;clip-rule:evenodd;stroke-linejoin:round;stroke-miterlimit:2;"><path d="M104,332l-48,0l0,-59.59c0.022,-21.063 17.347,-38.388 38.41,-38.41l201.59,0l0,-50l48,0l0,50l201.59,0c21.061,0.027 38.383,17.349 38.41,38.41l0,59.59l-48,0l0,-50l-192,0l0,50l-48,0l0,-50l-192,0l0,50Z" style="fill:#fd7d25;fill-rule:nonzero;"/><path d="M128,352l-96,0c-17.555,0 -32,14.445 -32,32l0,96c0,17.555 14.445,32 32,32l96,0c17.555,0 32,-14.445 32,-32l0,-96c0,-17.555 -14.445,-32 -32,-32Zm256,-352l-128,0c-17.555,0 -32,14.445 -32,32l0,96c0,17.555 14.445,32 32,32l128,0c17.555,0 32,-14.445 32,-32l0,-96c0,-17.555 -14.445,-32 -32,-32Zm224,352l-96,0c-17.555,0 -32,14.445 -32,32l0,96c0,17.555 14.445,32 32,32l96,0c17.555,0 32,-14.445 32,-32l0,-96c0,-17.555 -14.445,-32 -32,-32Zm-240,0l-96,0c-17.555,0 -32,14.445 -32,32l0,96c0,17.555 14.445,32 32,32l96,0c17.555,0 32,-14.445 32,-32l0,-96c0,-17.555 -14.445,-32 -32,-32Z" style="fill:#fff;fill-rule:nonzero;"/></svg>